Coordinates
version=1
nRows=13
nColumns=36
inDegrees=yes

Units are S.I. units (second, meters, Newtons, ...)
If the header above contains a line with 'inDegrees', this indicates whether rotational values are in degrees (yes) or radians (no).

endheader
time	pelvis_tilt	pelvis_list	pelvis_rotation	pelvis_tx	pelvis_ty	pelvis_tz	hip_flexion_r	hip_adduction_r	hip_rotation_r	knee_angle_r	knee_angle_r_beta	ankle_angle_r	subtalar_angle_r	mtp_angle_r	hip_flexion_l	hip_adduction_l	hip_rotation_l	knee_angle_l	knee_angle_l_beta	ankle_angle_l	subtalar_angle_l	mtp_angle_l	lumbar_extension	lumbar_bending	lumbar_rotation	arm_flex_r	arm_add_r	arm_rot_r	elbow_flex_r	pro_sup_r	arm_flex_l	arm_add_l	arm_rot_l	elbow_flex_l	pro_sup_l
      0.92000000	     -7.44336723	     -0.13418616	      1.82499633	     -0.47981325	      1.23668716	     -0.60397432	     22.21946985	     -3.47348944	    -16.09543235	      4.33518119	      0.07566319	    -29.20276256	      9.46993605	     -6.40173524	     21.54775840	     -2.82025687	    -14.82964591	      3.60697355	      0.06295356	    -29.45398169	      6.85413102	     -6.40173524	    -16.93987857	     -1.83785899	     -3.18611093	    -69.93018445	    -20.62453555	    -60.32614283	    125.00528486	     92.89286357	    -33.94498051	    -18.07205368	    -36.21356120	    131.92538479	     96.15952328
      0.93000000	     -7.34556195	     -0.00860809	      2.01613642	     -0.46868350	      1.21603291	     -0.60331912	     22.74901449	     -3.78633550	    -16.20153387	      4.33228995	      0.07561272	    -28.70120387	      9.95494617	     -6.50071754	     22.41467559	     -3.00116862	    -14.79898129	      3.50118076	      0.06110713	    -29.82848847	      9.15917697	     -6.50071754	    -17.18953761	     -2.04819984	     -3.55386414	    -70.65695297	    -17.02579516	    -55.61729773	    125.66643225	     92.81360230	    -38.39898091	    -15.30787072	    -36.80537621	    131.24085561	     95.33635654
      0.94000000	     -7.29670574	      0.04711218	      2.17171357	     -0.45831818	      1.19440174	     -0.60256701	     23.56711356	     -4.05689655	    -15.67959889	      4.96880205	      0.08672196	    -28.07369413	     10.04290232	     -6.56518004	     23.60394572	     -3.26542274	    -14.22366905	      4.14176629	      0.07228746	    -29.95658480	     10.40621588	     -6.56518004	    -17.45456943	     -2.12428293	     -3.39883430	    -70.90220605	    -12.70457990	    -51.30779090	    125.83408426	     92.19228462	    -41.91768144	    -12.78146025	    -36.45735490	    130.01148741	     94.28763205
      0.95000000	     -6.95976493	      0.11632857	      2.21595869	     -0.44832533	      1.17236648	     -0.60167423	     24.43204857	     -4.34900761	    -14.94903206	      6.53050092	      0.11397874	    -27.29504406	      9.34453062	     -6.85413564	     24.75210694	     -3.62586281	    -13.91076031	      5.65706305	      0.09873438	    -29.28574279	     11.71751530	     -6.85413564	    -18.15164556	     -2.35348319	     -3.63402621	    -70.11957379	     -9.26001091	    -47.20010899	    124.26645233	     99.17989317	    -45.07402211	     -9.47744739	    -36.95185859	    128.12422673	     97.10480028
      0.96000000	     -6.53081733	      0.16572509	      2.26170196	     -0.43919612	      1.14955161	     -0.60119363	     25.62753015	     -4.75036885	    -14.17673783	      9.12480992	      0.15925798	    -26.69114900	      8.27684828	     -6.98656118	     26.16985303	     -3.95931476	    -13.18770671	      8.13545803	      0.14199053	    -28.26084781	     11.65730986	     -6.98656118	    -19.08933256	     -2.45509020	     -3.48771885	    -68.79656133	     -5.46947341	    -43.47758402	    122.95483681	     95.53187877	    -47.01377203	     -6.56610691	    -36.47343135	    126.43041232	     93.57526337
      0.97000000	     -5.99114525	      0.18987417	      2.36300432	     -0.43069691	      1.12587165	     -0.60117317	     27.13635192	     -5.27603791	    -13.61575210	     12.82548360	      0.22384692	    -25.93084122	      7.09603922	     -7.03571992	     27.89689576	     -4.29343786	    -12.38596547	     11.71183639	      0.20441011	    -26.88595995	     10.87719028	     -7.03571992	    -20.25824474	     -2.44001990	     -3.33331770	    -66.84642315	     -2.04164627	    -40.45702000	    120.79830903	     94.34249430	    -47.78336756	     -3.85988514	    -36.01802977	    124.11576087	     92.20390457
      0.98000000	     -5.24007755	      0.25728006	      2.49931912	     -0.42260648	      1.10136500	     -0.60142467	     28.63511338	     -5.86699690	    -12.82661470	     17.07513662	      0.29801735	    -25.06469616	      6.26315549	     -7.08019743	     29.71825053	     -4.54433572	    -11.52523322	     16.12298742	      0.28139922	    -25.58696836	      9.81531683	     -7.08019743	    -21.79327650	     -2.39784953	     -3.15642933	    -64.35837169	      0.90482558	    -37.93552158	    118.03121622	     92.90559598	    -47.40683690	     -1.58585273	    -35.56114353	    121.51779987	     90.67471895
      0.99000000	     -4.65266638	      0.30886707	      2.64778236	     -0.41478295	      1.07535301	     -0.60185156	     30.55729048	     -6.42519914	    -11.79192984	     21.69097157	      0.37857887	    -24.58337911	      5.76913125	     -7.18549780	     32.02234060	     -4.78143743	    -10.68310220	     21.15896890	      0.36929367	    -24.79646926	      9.21904947	     -7.18549780	    -23.14590855	     -2.32972426	     -3.32116188	    -61.21065048	      2.83717350	    -36.33432326	    113.65544452	    105.14433848	    -46.33889647	      0.55547132	    -35.78390978	    117.69507536	     98.29026828
      1.00000000	     -4.11201629	      0.31490577	      2.85588019	     -0.40710358	      1.04829910	     -0.60252473	     32.75145626	     -6.95939184	    -10.84943824	     26.98904777	      0.47104775	    -22.81856781	      5.11491378	     -7.22380300	     34.48337456	     -4.87312136	     -9.50894829	     26.46122410	      0.46183548	    -23.89084220	      8.26676150	     -7.22380300	    -24.45199211	     -2.17801447	     -3.31867697	    -57.83121823	      4.22500855	    -34.55823957	    109.87246051	    101.96529488	    -44.53100907	      1.98328097	    -35.33794062	    114.92651023	     95.77290730
      1.01000000	     -3.88493863	      0.23069693	      3.04156581	     -0.39972102	      1.01981948	     -0.60322611	     35.63440064	     -7.40336291	    -10.04513970	     33.92848136	      0.59216371	    -17.35584246	      3.29720942	     -7.26831149	     37.40303930	     -4.93127920	     -8.30517717	     32.68490366	      0.57045918	    -20.20211576	      6.46106181	     -7.26831149	    -25.35836238	     -1.95397012	     -3.36692186	    -54.20153957	      4.75666502	    -32.96975561	    105.85940468	     98.26824359	    -42.27587774	      2.90724160	    -34.84382165	    112.18188136	     92.87080205
      1.02000000	     -3.76618358	      0.24222814	      3.24790340	     -0.39217228	      0.98995369	     -0.60429152	     38.85027730	     -8.02953596	     -9.37766308	     42.43145359	      0.74056857	     -7.64440665	      2.33580671	     -7.31748558	     40.48026600	     -4.84388939	     -7.46448464	     40.22454224	      0.70205070	    -12.18094125	      4.71667025	     -7.31748558	    -26.01467708	     -1.82817801	     -3.67746176	    -50.46125739	      4.30798497	    -31.35228354	    101.84539005	     95.28029320	    -39.82435034	      3.49358665	    -34.47170736	    109.52935548	     90.72284835
      1.03000000	     -3.29828699	      0.20116316	      3.43342347	     -0.38401029	      0.95976188	     -0.60560045	     41.47852551	     -8.37284404	     -8.65741022	     50.79366336	      0.88651666	      2.56006362	      1.11531996	     -7.35363390	     43.09474237	     -4.72109626	     -6.71065452	     48.42405059	      0.84515912	     -1.66110346	      3.17472538	     -7.35363390	    -26.88137774	     -1.59966164	     -3.89936626	    -46.76446414	      3.32697366	    -29.92980884	     98.13702387	     92.76588452	    -37.18797007	      3.51480575	    -33.78343762	    107.09808851	     88.99964928
      1.04000000	     -2.77190500	      0.09932749	      3.53860128	     -0.37557692	      0.93025991	     -0.60687228	     43.66483008	     -8.42879168	     -8.06739321	     58.08331245	      1.01374504	     11.44239687	     -0.00569630	     -7.37421417	     45.36000694	     -4.51810622	     -5.87268179	     56.00889090	      0.97753956	      8.36150139	      2.04426108	     -7.37421417	    -27.70104351	     -1.37401948	     -4.08559012	    -42.87192414	      1.85950055	    -28.47806669	     94.38791985	     91.70801306	    -34.28667222	      3.04005297	    -32.92449095	    104.48411409	     88.28597889
